<svg width="50" height="44" viewBox="0 0 50 44" fill="none" xmlns="http://www.w3.org/2000/svg">
<path d="M13.533 18.3133C14.2316 18.3133 14.8954 18.0431 15.4022 17.5525C15.6928 17.2712 15.7003 16.8075 15.419 16.5169C15.1377 16.2263 14.674 16.2185 14.3833 16.5001C14.1513 16.7248 13.8493 16.8484 13.5329 16.8484H13.3032C12.9869 16.8484 12.6849 16.7247 12.4528 16.5001C12.162 16.2186 11.6984 16.2263 11.4171 16.5169C11.1358 16.8076 11.1433 17.2713 11.4339 17.5525C11.9407 18.0431 12.6045 18.3133 13.3031 18.3133H13.533Z" fill="#583DCC"/>
<path d="M48.7784 1.12512H25.1766C24.5034 1.12512 23.9559 1.67268 23.9559 2.34583V3.70842C23.9559 4.38157 24.5034 4.92913 25.1766 4.92913H25.4203V20.1498C25.4203 20.823 25.9679 21.3705 26.641 21.3705H26.9455L24.4115 24.7348C23.834 24.4497 23.1847 24.2888 22.4981 24.2888H22.492C23.4816 18.9413 24.087 13.0459 24.087 10.4421C24.087 7.00295 23.0173 4.38479 20.9076 2.66018C19.081 1.16692 16.5611 0.40979 13.4181 0.40979C10.076 0.40979 7.44648 1.26135 5.60264 2.94065C5.30361 3.21301 5.28193 3.6762 5.5543 3.97532C5.82676 4.27444 6.28994 4.29602 6.58897 4.02366C8.15459 2.59768 10.4522 1.87463 13.4181 1.87463C17.617 1.87463 22.6222 3.36106 22.6222 10.442C22.6222 10.8728 22.6048 11.3978 22.5716 11.9965C22.0922 11.4793 21.4077 11.1548 20.6485 11.1548H20.0333V10.6216C20.0333 9.00286 19.0146 7.60081 17.5711 7.04817C17.7118 6.8053 17.8474 6.56106 17.9753 6.31643C18.1627 5.95803 18.024 5.51545 17.6656 5.32805C17.307 5.14055 16.8646 5.27932 16.6771 5.63782C15.6531 7.59622 14.1937 9.49573 12.3315 11.1278C12.3241 11.1343 12.3167 11.1407 12.3093 11.1472C10.806 12.4609 9.09023 13.5584 7.24336 14.3576C6.97529 14.4737 6.80186 14.7377 6.80186 15.0298V15.7193C6.80186 18.0593 8.08691 20.1036 9.9874 21.1876V24.2886H5.83213C4.82881 18.9546 4.21289 13.023 4.21289 10.4419C4.21289 8.95901 4.43467 7.64797 4.87217 6.54504C5.02129 6.16897 4.8374 5.74329 4.46133 5.59416C4.08535 5.44524 3.65967 5.62893 3.51045 6.00491C3.00449 7.28059 2.74795 8.77336 2.74795 10.442C2.74795 13.0446 3.35303 18.9398 4.34209 24.2886H4.33711C1.94717 24.2886 0.00107422 26.2329 -0.000976562 28.6236V39.9487C-0.000976562 41.9566 1.63252 43.5901 3.64033 43.5901H4.0166C4.65479 43.5901 5.28438 43.4213 5.8373 43.1022L6.72168 42.5915H26.1035C26.508 42.5915 26.8359 42.2637 26.8359 41.8591V28.6267C26.8359 27.448 26.3627 26.3781 25.5971 25.5954L28.7793 21.3705H36.348V22.4315C35.439 22.738 34.7823 23.5981 34.7823 24.6091C34.7823 25.8763 35.8132 26.9071 37.0804 26.9071C38.3475 26.9071 39.3783 25.8762 39.3783 24.6091C39.3783 23.598 38.7217 22.738 37.8128 22.4315V21.3705H47.3139C47.987 21.3705 48.5346 20.823 48.5346 20.1498V4.92913H48.7783C49.4515 4.92913 49.999 4.38157 49.999 3.70842V2.34583C49.9991 1.67278 49.4516 1.12512 48.7784 1.12512V1.12512ZM21.002 24.2889H16.8477V21.1875C18.5608 20.2102 19.7731 18.4527 19.9955 16.4013H20.6484C21.2469 16.4013 21.7988 16.1994 22.2407 15.8607C21.9606 18.4433 21.5363 21.4503 21.002 24.2889V24.2889ZM12.6077 25.7537C12.2545 26.6422 11.8025 27.1696 11.3177 27.2327C10.7173 27.3113 9.93008 26.752 9.17568 25.7537H12.6077ZM17.9521 25.7537C17.1975 26.7516 16.4099 27.3103 15.8105 27.2327C15.3255 27.1696 14.8736 26.6423 14.5204 25.7537H17.9521ZM20.6485 12.6198C21.2872 12.6198 21.8067 13.1394 21.8067 13.7781C21.8067 14.4167 21.2872 14.9363 20.6485 14.9363H20.0333V12.6198H20.6485V12.6198ZM8.2666 15.7196V15.505C10.2574 14.5863 12.1328 13.3307 13.7858 11.7869C13.7881 11.7849 13.7903 11.7828 13.7926 11.7807C14.9438 10.7048 15.9486 9.52336 16.7653 8.32795C17.8033 8.57952 18.5684 9.51956 18.5684 10.6219V15.7186C18.5684 18.3809 16.4024 20.5467 13.7402 20.5467H13.0938C10.432 20.5467 8.2666 18.3812 8.2666 15.7196V15.7196ZM11.4521 21.7929C11.9759 21.9346 12.5259 22.0115 13.0938 22.0115H13.7402C14.3085 22.0115 14.8588 21.9345 15.3828 21.7927V24.2889H11.4521V21.7929ZM25.3712 28.6267V41.1268H22.3364V37.0404C22.3364 36.6358 22.0085 36.3079 21.604 36.3079C21.1995 36.3079 20.8716 36.6358 20.8716 37.0404V41.1268H9.25898L12.4109 39.307C12.7612 39.1047 12.8813 38.6568 12.679 38.3065C12.4768 37.9562 12.0288 37.8363 11.6785 38.0384L5.10498 41.8336C4.77451 42.0244 4.39824 42.1252 4.0167 42.1252H3.64043C2.44033 42.1252 1.46396 41.1489 1.46396 39.9487V28.6243C1.46533 27.0419 2.75352 25.7544 4.33584 25.7536H7.40801C8.56504 27.6518 9.92158 28.7046 11.2069 28.7046C12.0342 28.7046 12.8935 28.2752 13.5641 27.1333C14.2142 28.2402 14.9944 28.6035 15.6212 28.6852C17.3266 28.9075 18.817 27.2354 19.7202 25.7536H22.4981C22.8527 25.7536 23.1924 25.8187 23.5063 25.9366L21.0143 29.2451C20.7743 29.0994 20.5125 28.9866 20.2338 28.9119C19.4644 28.7057 18.6606 28.8116 17.9708 29.2099L5.96357 36.1422V33.9854C5.96357 33.5808 5.63564 33.253 5.23115 33.253C4.82666 33.253 4.49873 33.5808 4.49873 33.9854V37.4108C4.49873 37.6725 4.63838 37.9142 4.86494 38.045C5.0915 38.1759 5.3708 38.1759 5.59736 38.045L14.7871 32.7394L16.3045 35.3676L14.689 36.3003C14.3387 36.5026 14.2187 36.9505 14.4209 37.3008C14.6231 37.6511 15.0711 37.771 15.4214 37.5689L20.953 34.3751C21.6429 33.9769 22.1363 33.3338 22.3426 32.5644C22.5481 31.7972 22.4435 30.9959 22.0479 30.3075L24.7011 26.7851C25.119 27.2841 25.3712 27.9265 25.3712 28.6267V28.6267ZM17.5731 34.6353L16.0558 32.0071L18.7033 30.4785C19.0544 30.2758 19.4633 30.222 19.8548 30.3269C20.2463 30.4318 20.5735 30.6829 20.7762 31.0339C20.9788 31.3849 21.0326 31.7938 20.9277 32.1853C20.8229 32.5768 20.5717 32.9039 20.2207 33.1067L17.5731 34.6353ZM37.0805 25.4423C36.621 25.4423 36.2473 25.0686 36.2473 24.6092C36.2473 24.1497 36.621 23.776 37.0805 23.776C37.5398 23.776 37.9136 24.1497 37.9136 24.6092C37.9136 25.0686 37.5398 25.4423 37.0805 25.4423ZM25.4207 2.58997H48.5343V3.46428H25.4207V2.58997ZM47.0698 19.9058H29.8827L31.3019 18.0216C31.5452 17.6985 31.4807 17.2393 31.1575 16.9959C30.8343 16.7525 30.3752 16.817 30.1318 17.1403L28.0488 19.9058H26.8852V4.92913H47.0698V19.9058Z" fill="#583DCC"/>
</svg>
